<svg id="Capa_1" data-name="Capa 1" xmlns="http://www.w3.org/2000/svg" viewBox="0 0 296.7 413.25"><defs><style>.cls-1{fill:none;stroke:#000;stroke-miterlimit:10;stroke-width:6px;}</style></defs><title>with-glasses</title><path d="M340.1,209.93c-17.4-30.2-35.4-49-68.8-55.7-1.7-.3-3.4-.7-5.1-1.1,11.6-4.1,23.3-6.7,35.7-4.3-3.8-1.6-7.5-3.2-11.3-4.7a140,140,0,0,0-35.3-9.1c-17.2-2.1-34-.7-50.1,6.5-1.2.5-2.4,1.1-3.6,1.7s-2.3,1.2-3.4,1.8c-3.2-4.2-.4-6,7.4-10.1-2,.1-4.1.2-6.1.4-14.1,1.1-27.7,3.9-40.6,10.2-8.5,4.2-16,9.9-21.3,18.2-3.6,5.8-3.7,5.8-4.2,12.7-.1,1.2-.6,1.3-1.5,1.7-51.5,20.5-52.7,87.8-52.7,87.8.1,2.6.2,4.9.3,7.1,1.2,20.9,3.7,41.6,8.6,61.7,7.4,6.2,12.6,18.7,12.7,18.8-1-7.7-1.3-14.4-.6-18.7,0,0,.5-50.3,3.2-64.3,4.2-21.5,10-50,70-52.7h93.1c60,2.7,65.8,31.2,70,52.7,2.7,14,3.2,64.3,3.2,64.3.7,4,.4,10.1-.4,17a5.7,5.7,0,0,0,.1,1.3c1.2-2.8,4.2-17.5,13.8-19.4C357.7,315.83,353.9,234,340.1,209.93Z" transform="translate(-72.15 -134.14)"/><path class="cls-1" d="M241.8,217.93h24.7c60,2.7,65.8,31.2,70,52.7,2.7,14,3.2,64.3,3.2,64.3,2.3,13.3-5.8,49.1-9.9,65.1-4.4,17-12,42.7-16.7,59.7-3.4,12.3-31.3,59-56,75s-37.2,7.3-37.2,7.3h-.1s-12.4,8.7-37-7.3-53.6-62.7-57-75c-4.6-16.9-11.3-42.7-15.7-59.7-4.1-15.9-12.2-51.8-9.9-65.1,0,0,.5-50.3,3.2-64.3,4.2-21.5,10-50,70-52.7h68.4Z" transform="translate(-72.15 -134.14)"/><path d="M238.7,442.43a4.56,4.56,0,0,1,.4-.8c.3-.5.6-1.3,1.1-2.2a16.29,16.29,0,0,0,1.1-3.1v-.6c0-.1-.2-.1-.2.3a1.42,1.42,0,0,0,.2.6c0,.1.1.1.1.2h0s.5.3.2.2h-.1l-.2-.1h0l.1.1a.35.35,0,0,1,.2.1c.1.1.1.1.2.1s.1.1,0,.1a12.46,12.46,0,0,1-1.3,1c-.6.5-1.2,1-1.9,1.6s-1.4,1.2-2.1,1.9l-1,1-.5.5-.1.1h0l-.1.1h0l-.1.1-.4.3c-.9.8-1.8,1.6-2.8,2.4a34.55,34.55,0,0,1-3.1,2.2,25.57,25.57,0,0,1-3.7,2c-.7.3-1.5.6-2.3.9l-1.4.3c-.3,0-.6.1-.9.1h-1.3l-.9-.1a11.62,11.62,0,0,1-1.8-.4c-.9-.3-1.6-.6-2.3-.9a25.58,25.58,0,0,1-3.7-2c-1.1-.7-2.1-1.5-3.1-2.2a32.18,32.18,0,0,1-2.8-2.4l-.3-.3-.1-.1-.1-.1h0l-.1-.1-.5-.5a9.43,9.43,0,0,1-1-1c-.7-.7-1.4-1.3-2.1-1.9s-1.3-1.1-1.9-1.6-1.1-.8-1.3-1,0-.1.3-.3l.1-.1v-.1h0c-.2.1.3-.2.2-.2h0l-.1.1h-.1c.1-.1.3-.3.3-.4a.37.37,0,0,1,.1-.3c0-.4-.1-.4-.2-.3a.63.63,0,0,0,0,.6,16.29,16.29,0,0,0,1.1,3.1c.5.9.8,1.7,1.1,2.2a4.56,4.56,0,0,1,.4.8l-.4.4s-.9-.8-2.3-2.3a17.77,17.77,0,0,1-2.3-3.1,3.45,3.45,0,0,1-.4-2.5,2.51,2.51,0,0,1,.4-.7c.1-.1.2-.1.2-.2.2-.1.2-.2.4-.2a2.62,2.62,0,0,1,1.5-.2,9.18,9.18,0,0,1,2.8.9,17.36,17.36,0,0,1,2.6,1.5,56.06,56.06,0,0,1,5.1,3.8,53.6,53.6,0,0,0,5.5,3.8c1,.6,2,1.1,3,1.6.5.2,1.1.4,1.6.6l.8.2.9.1a1.7,1.7,0,0,0,.7-.1l.8-.2a10.41,10.41,0,0,0,1.6-.6,17.28,17.28,0,0,0,3-1.6,58.93,58.93,0,0,0,5.5-3.8,56.08,56.08,0,0,1,5.1-3.8,17.36,17.36,0,0,1,2.6-1.5,9.18,9.18,0,0,1,2.8-.9,3.89,3.89,0,0,1,1.5.2,1.82,1.82,0,0,1,1,1.1,3.45,3.45,0,0,1-.4,2.5,16.62,16.62,0,0,1-2.3,3.1c-1.4,1.5-2.3,2.3-2.3,2.3Z" transform="translate(-72.15 -134.14)"/><path class="cls-1" d="M101.8,353.63s-10.3-24.7-22.3-21.9c-4.1,1-9,5.8,4.5,28.2,4.6,7.6,12,25.3,13.5,33,.6,3.2,2.8,16,5.8,16.5,2.7.5,7.7,1.4,8.7-6.4" transform="translate(-72.15 -134.14)"/><circle cx="35.25" cy="277.59" r="7.2"/><circle cx="260.65" cy="277.59" r="7.2"/><path class="cls-1" d="M339.2,353.63s10.3-24.7,22.3-21.9c4.1,1,9,5.8-4.5,28.2-4.6,7.6-12,25.3-13.5,33-.6,3.2-2.8,16-5.8,16.5-2.7.5-7.7,1.4-8.7-6.4" transform="translate(-72.15 -134.14)"/><circle cx="206.75" cy="230.49" r="10"/><circle cx="86.25" cy="230.49" r="10"/><path d="M186.1,348.93c-16.4-1.6-43.3-12-65.7,5.7,0,0-1.7-6.7,4.7-13,0,0,24.2-20,61.3-3.1a10.59,10.59,0,0,1,4.2,2.9C193.5,345.23,194.1,349.73,186.1,348.93Z" transform="translate(-72.15 -134.14)"/><path d="M251.2,348.93c16.4-1.6,43.3-12,65.7,5.7,0,0,1.7-6.7-4.7-13,0,0-24.2-20-61.3-3.1a10.59,10.59,0,0,0-4.2,2.9C243.8,345.23,243.2,349.73,251.2,348.93Z" transform="translate(-72.15 -134.14)"/><path d="M218.2,542.83a2.41,2.41,0,0,0,.3-.8,9.42,9.42,0,0,0,.3-.9,10.37,10.37,0,0,0,.3-1.2,5.85,5.85,0,0,0,.2-1.3c.1-.5.1-1,.2-1.5s.1-1.1.1-1.6v-1.6a9.7,9.7,0,0,0-.1-1.7v-.8c0-.3-.1-.6-.1-.8-.1-.5,0-1.1-.1-1.6s-.1-1-.1-1.4c0-.9-.1-1.7-.1-2.2v-.9a4,4,0,0,1,.5.7,5.54,5.54,0,0,1,.6.8,10.54,10.54,0,0,1,.7,1.1c.2.4.4.9.6,1.4a9.83,9.83,0,0,1,.5,1.6,11.62,11.62,0,0,1,.4,1.8,12.25,12.25,0,0,1,.2,1.9v1c0,.3-.1.7-.1,1a6.46,6.46,0,0,1-.4,1.9c-.2.6-.4,1.2-.6,1.7a6.38,6.38,0,0,1-.8,1.4,4.5,4.5,0,0,1-.9,1c-.3.3-.6.5-.8.7C218.5,542.73,218.2,542.83,218.2,542.83Z" transform="translate(-72.15 -134.14)"/><path d="M219.3,343.13a1.24,1.24,0,0,1,.2.3,4.35,4.35,0,0,1,.4.7,16.12,16.12,0,0,1,1,2.5A23.53,23.53,0,0,1,222,354a24.66,24.66,0,0,1-.3,3.9,28.4,28.4,0,0,1-.8,3.4,16.12,16.12,0,0,1-1,2.5,4.34,4.34,0,0,1-.4.7,1.24,1.24,0,0,1-.2.3l-.2-.2c-.1-.2-.3-.4-.5-.7a8.8,8.8,0,0,1-.6-1c-.2-.4-.4-.9-.6-1.4a16.09,16.09,0,0,1-1-3.5,17.54,17.54,0,0,1-.3-4,25.81,25.81,0,0,1,.4-4,15.16,15.16,0,0,1,1-3.4,26.5,26.5,0,0,1,1.2-2.4c.2-.3.4-.5.5-.7A.58.58,0,0,1,219.3,343.13Z" transform="translate(-72.15 -134.14)"/><path d="M333.3,337.63H318.7c-8.5-14.8-22.9-20.7-39.2-20.7s-30.6,6-39.2,20.7H201.2c-8.6-14.8-22.9-20.7-39.2-20.7s-30.6,6-39.2,20.7h-18c-4.6,0-8.3,2.8-8.3,7.4s3.7,7.4,8.3,7.4h10.8a52.12,52.12,0,0,0-1.1,10.2,47.45,47.45,0,1,0,94.9,0,52.12,52.12,0,0,0-1.1-10.2h24.8a52.12,52.12,0,0,0-1.1,10.2,47.45,47.45,0,1,0,94.9,0,52.12,52.12,0,0,0-1.1-10.2h7.5c4.6,0,8.3-2.8,8.3-7.4S337.9,337.63,333.3,337.63Z" transform="translate(-72.15 -134.14)"/><path d="M233,466.73c-5.5,0-10.8,1.2-14.6,4.6-3.8-3.4-9.1-4.6-14.6-4.6-12.8,0-26.9,5-26.9,5s6.1,32,41.5,32.5c35.5-.4,41.5-32.5,41.5-32.5S245.9,466.73,233,466.73Zm18.3,8.9c1.1-.2,2.3-.5,3.3-.7-1.1.9-2.2,1.7-3.3,2.5Zm-47.5-5.4c5.4,0,9.5,1.3,12.3,3.7l2.3,2.1,2.3-2.1c2.8-2.5,6.9-3.7,12.3-3.7,6.4,0,13.2.2,18.2,1.9-11.9,2.6-27.2,5.7-32.6,5.7h-.2c-5.2-.1-20.6-3.2-32.6-5.7C190.7,470.43,197.5,470.23,203.8,470.23Zm44,6.2v3.4a41.07,41.07,0,0,1-3.9,2.4,8.26,8.26,0,0,1-1.3.7v-5.5c1.4-.3,2.8-.6,4.3-.9C247.3,476.53,247.6,476.43,247.8,476.43Zm-8.6,1.7v6.6c-2.3,1.1-4.7,2.1-6.9,2.9v-8.2C234.4,479.13,236.7,478.63,239.2,478.13Zm-10.4,2v8.6a39.35,39.35,0,0,1-8.7,1.4v-8.9C222.2,481,225.1,480.73,228.8,480.13Zm-12.1,1v9a39.35,39.35,0,0,1-8.7-1.4v-8.8A67.1,67.1,0,0,0,216.7,481.13Zm-12.1-1.8v8.3a67.58,67.58,0,0,1-6.9-2.9V478C200.2,478.53,202.5,478.93,204.6,479.33Zm-10.4-2v5.6c-.4-.2-.9-.5-1.3-.7l-3.9-2.4v-3.5a4.25,4.25,0,0,0,1.1.2C191.5,476.83,192.9,477.13,194.2,477.33Zm-8.7-1.8v1.9c-1.2-.8-2.3-1.7-3.5-2.6C183.2,475,184.3,475.33,185.5,475.53Zm64.2,10.2a36.06,36.06,0,0,1-11.5,10.2,41.7,41.7,0,0,1-19.8,4.8,42.34,42.34,0,0,1-19.6-4.7,35.42,35.42,0,0,1-11.5-10,45,45,0,0,1-3.5-5.5c10,7.2,22.3,13.2,34.6,13.2s24.5-6,34.6-13.2A54.76,54.76,0,0,1,249.7,485.73Z" transform="translate(-72.15 -134.14)"/><path d="M263.3,449.53a9.89,9.89,0,0,1,1.5.7c.9.5,2.2,1.2,3.7,2.2a46.53,46.53,0,0,1,4.8,3.8c.8.8,1.6,1.6,2.4,2.5s1.5,1.8,2.3,2.8a19.82,19.82,0,0,1,1.9,3.1,16.18,16.18,0,0,1,1.8,6.8v.8c0,.3-.1.5-.1.8a8.33,8.33,0,0,1-.4,1.5,7.14,7.14,0,0,1-1.2,2.3,6.67,6.67,0,0,1-1.3,1.5,5.77,5.77,0,0,1-1,.8c-.2.2-.3.2-.3.2s.3-.5.8-1.4a2.51,2.51,0,0,1,.4-.7c.1-.1.1-.3.2-.4s.1-.3.2-.5a12.91,12.91,0,0,0,.5-2.1,4.82,4.82,0,0,0,0-1.2v-.6c0-.2-.1-.4-.1-.7a9.24,9.24,0,0,0-.8-2.7,18.29,18.29,0,0,0-1.4-2.8,22,22,0,0,0-1.8-2.8,53,53,0,0,0-4.2-5.2c-1.4-1.6-2.8-3.1-4-4.3C264.9,451.23,263.3,449.53,263.3,449.53Z" transform="translate(-72.15 -134.14)"/><path d="M176.6,449.53s-1.6,1.7-4,4.3c-1.2,1.3-2.6,2.7-4,4.3a56,56,0,0,0-4.2,5.2,26.75,26.75,0,0,0-1.8,2.8,18.29,18.29,0,0,0-1.4,2.8c-.3.9-.6,1.9-.8,2.7,0,.2-.1.4-.1.7v.6a4.82,4.82,0,0,0,0,1.2,10.8,10.8,0,0,0,.5,2.1c.1.2.1.3.2.5s.1.3.2.4a4.34,4.34,0,0,0,.4.7c.5.9.8,1.4.8,1.4a1.24,1.24,0,0,0-.3-.2c-.2-.2-.6-.4-1-.8a10.76,10.76,0,0,1-1.3-1.5,7.14,7.14,0,0,1-1.2-2.3c-.1-.5-.3-.9-.4-1.5,0-.3-.1-.5-.1-.8v-.8a13.32,13.32,0,0,1,.5-3.4,23.67,23.67,0,0,1,1.3-3.4,19.82,19.82,0,0,1,1.9-3.1,31.13,31.13,0,0,1,2.3-2.8c.8-.9,1.6-1.7,2.4-2.5a46.54,46.54,0,0,1,4.8-3.8,23.39,23.39,0,0,1,3.7-2.2C176.1,449.73,176.6,449.53,176.6,449.53Z" transform="translate(-72.15 -134.14)"/></svg>