<svg id="Capa_1" data-name="Capa 1" xmlns="http://www.w3.org/2000/svg" viewBox="0 0 245.1 93.2"><title>Gafas</title><path d="M334.75,313.1h-14.6c-8.5-14.8-22.9-20.7-39.2-20.7s-30.6,6-39.2,20.7h-39.1c-8.6-14.8-22.9-20.7-39.2-20.7s-30.6,6-39.2,20.7h-18c-4.6,0-8.3,2.8-8.3,7.4s3.7,7.4,8.3,7.4h10.8a52.12,52.12,0,0,0-1.1,10.2,47.45,47.45,0,1,0,94.9,0,52.12,52.12,0,0,0-1.1-10.2h24.8a52.12,52.12,0,0,0-1.1,10.2,47.45,47.45,0,1,0,94.9,0,52.12,52.12,0,0,0-1.1-10.2h7.5c4.6,0,8.3-2.8,8.3-7.4S339.35,313.1,334.75,313.1Z" transform="translate(-97.95 -292.4)"/></svg>