<svg id="Capa_1" data-name="Capa 1" xmlns="http://www.w3.org/2000/svg" viewBox="0 0 275.84 505.01"><title>Iconito Beard</title><path d="M340.08,165.27c-17.36-30.19-35.44-49-68.76-55.67-1.7-.34-3.41-.65-5.14-1.14,11.56-4.11,23.28-6.74,35.68-4.26-3.75-1.58-7.48-3.24-11.26-4.72a145.07,145.07,0,0,0-35.31-9.13c-17.19-2.09-34-.72-50.06,6.51-1.22.55-2.42,1.14-3.61,1.74s-2.27,1.21-3.4,1.81c-3.17-4.23-.42-6,7.39-10.14-2,.12-4.09.2-6.14.36-14.06,1.13-27.74,3.94-40.57,10.25-8.55,4.2-16,9.88-21.26,18.23-3.63,5.76-3.69,5.82-4.21,12.67-.09,1.18-.62,1.3-1.55,1.67C80.42,154,79.14,221.24,79.14,221.24c.12,2.62.21,4.87.34,7.12,1.21,20.9,3.68,41.56,8.6,61.74,7.37,6.15,12.63,18.71,12.69,18.84-1-7.67-1.33-14.41-.58-18.73,0,0,.51-50.26,3.24-64.25,4.2-21.49,10-50,70-52.67h93c60,2.67,65.8,31.17,70,52.67,2.73,14,3.24,64.25,3.24,64.25.7,4,.44,10.07-.37,17,0,.43,0,.87.07,1.3,1.23-2.8,4.22-17.54,13.77-19.4C357.7,271.15,353.93,189.35,340.08,165.27Z" transform="translate(-79.14 -89.46)"/><path d="M238.74,397.82l.4-.78c.27-.49.62-1.26,1.08-2.17a14.13,14.13,0,0,0,1.12-3.14,1.17,1.17,0,0,0,0-.62c0-.12-.21-.08-.19.3a1.18,1.18,0,0,0,.19.56.85.85,0,0,0,.13.2h0l.23.16h0l-.07,0-.15-.06s0,0,0,0l.1.08a1.18,1.18,0,0,0,.23.12c.12.05.09.07.15.09s.07.08,0,.12-.73.5-1.29,1-1.24,1-1.9,1.59-1.36,1.23-2.05,1.92l-1,1-.51.52-.11.12,0,0-.11.09,0,0-.08.07-.35.33c-.88.84-1.8,1.61-2.77,2.39a32.62,32.62,0,0,1-3.09,2.24,25,25,0,0,1-3.68,2,19.54,19.54,0,0,1-2.31.86c-.47.12-.95.23-1.43.34-.28,0-.59.07-.88.1l-.45,0h-.39l-.5,0-.9-.09c-.61-.1-1.23-.23-1.83-.38a19.35,19.35,0,0,1-2.33-.87,25.46,25.46,0,0,1-3.68-2,33.35,33.35,0,0,1-3.09-2.25c-1-.77-1.89-1.55-2.77-2.39l-.34-.32L204,399l-.12-.11,0,0-.11-.12-.51-.52-1-1c-.69-.69-1.4-1.31-2.05-1.92s-1.32-1.13-1.9-1.59-1.14-.81-1.29-1,0-.12.32-.34l.11-.08,0-.05,0,0,.21-.17h0l-.14.08-.07,0s-.05,0,0,0a1.18,1.18,0,0,0,.29-.43,1.23,1.23,0,0,0,.06-.29c0-.37-.14-.42-.19-.29a1.18,1.18,0,0,0,0,.62,14.1,14.1,0,0,0,1.12,3.14c.45.9.8,1.67,1.08,2.17l.4.78-.4.45a27.28,27.28,0,0,1-2.33-2.29,15.38,15.38,0,0,1-2.25-3.06,3.45,3.45,0,0,1-.45-2.51,1.85,1.85,0,0,1,.42-.71c.09-.1.16-.14.24-.22a3.23,3.23,0,0,1,.37-.23,2.84,2.84,0,0,1,1.5-.22,8.49,8.49,0,0,1,2.77.87,23.67,23.67,0,0,1,2.61,1.48,51.7,51.7,0,0,1,5.11,3.84,52.63,52.63,0,0,0,5.52,3.83,24.68,24.68,0,0,0,3,1.57,14,14,0,0,0,1.58.57l.75.17.88.08c.16,0,.49,0,.73-.07l.8-.18a14,14,0,0,0,1.58-.57,24.7,24.7,0,0,0,3-1.57,52.66,52.66,0,0,0,5.52-3.83,51.68,51.68,0,0,1,5.11-3.84,23.69,23.69,0,0,1,2.61-1.48,8.49,8.49,0,0,1,2.77-.87,2.8,2.8,0,0,1,1.54.24,2,2,0,0,1,1,1.15,3.45,3.45,0,0,1-.45,2.51,15.38,15.38,0,0,1-2.25,3.06,27.28,27.28,0,0,1-2.33,2.29Z" transform="translate(-79.14 -89.46)"/><circle cx="28.26" cy="277.63" r="7.24"/><circle cx="253.7" cy="277.63" r="7.24"/><path d="M218.19,506.12s.15-.3.34-.8c.1-.25.19-.56.3-.9s.2-.73.28-1.16.17-.87.24-1.35.11-1,.16-1.5.08-1.05.06-1.61c0-.28,0-.55,0-.83l0-.84c0-.56,0-1.13-.07-1.69,0-.28,0-.56,0-.84s-.06-.55-.08-.82c-.06-.54,0-1.08-.12-1.58s-.08-1-.1-1.45c0-.91-.12-1.68-.11-2.24s0-.89,0-.89.22.24.54.7c.16.23.36.5.57.84a9,9,0,0,1,.65,1.13c.21.43.42.9.63,1.4a12.78,12.78,0,0,1,.54,1.64,10.47,10.47,0,0,1,.39,1.81,12,12,0,0,1,.18,1.93v1c0,.33-.06.65-.09,1a11.38,11.38,0,0,1-.35,1.88,11.26,11.26,0,0,1-.62,1.69,8.75,8.75,0,0,1-.81,1.4,7.12,7.12,0,0,1-.89,1,5.27,5.27,0,0,1-.81.67A3.29,3.29,0,0,1,218.19,506.12Z" transform="translate(-79.14 -89.46)"/><path d="M218.32,298.47l.16.25c.09.16.25.4.39.7a16.28,16.28,0,0,1,1,2.47,23.14,23.14,0,0,1,1.11,7.36,24.57,24.57,0,0,1-.33,3.9,21.58,21.58,0,0,1-.84,3.41,18.12,18.12,0,0,1-1,2.46c-.13.3-.29.54-.38.71l-.16.25s-.07-.08-.19-.23-.3-.37-.47-.65a11.64,11.64,0,0,1-.63-1c-.21-.4-.43-.86-.65-1.37a17.93,17.93,0,0,1-1-3.48,21.07,21.07,0,0,1-.35-4,21.43,21.43,0,0,1,.41-4,18.74,18.74,0,0,1,1-3.45,14.71,14.71,0,0,1,1.23-2.4c.16-.29.35-.51.45-.66S218.32,298.47,218.32,298.47Z" transform="translate(-79.14 -89.46)"/><path d="M167.84,316.15c2,5.23,1.32,8.57-1.84,11.18a8.25,8.25,0,0,1-9.1.74c-3.65-2.17-4.64-5.25-3.34-11.41-4.42,1.62-8.57,3.1-12.69,4.65-1.18.45-2.27,1.14-3.43,1.64a2.51,2.51,0,0,1-3.53-1.13c-.63-1.4-.16-2.55,1.41-3.38,7.89-4.16,16.19-7,25.14-7.57A37.39,37.39,0,0,1,185.81,319a9.32,9.32,0,0,1,.75.72,2.49,2.49,0,0,1,.1,3.58c-1,1-2.26,1-3.57.11-2.36-1.63-6.81-4-9.33-5.35C172.09,317.15,170.09,316.85,167.84,316.15Zm-6.94,7.92A3.25,3.25,0,0,0,164,321a3.05,3.05,0,0,0-6.11-.12A3.23,3.23,0,0,0,160.9,324.07Z" transform="translate(-79.14 -89.46)"/><path d="M263.36,318.05c-2.52,1.36-7,3.72-9.33,5.35-1.31.91-2.59.91-3.57-.11a2.49,2.49,0,0,1,.1-3.58,9.32,9.32,0,0,1,.75-.72,37.39,37.39,0,0,1,25.33-8.12c9,.55,17.26,3.41,25.14,7.57,1.57.83,2,2,1.41,3.38a2.51,2.51,0,0,1-3.53,1.13c-1.16-.5-2.25-1.19-3.43-1.64-4.12-1.55-8.26-3-12.69-4.65,1.3,6.16.31,9.24-3.34,11.41a8.25,8.25,0,0,1-9.1-.74c-3.16-2.61-3.8-6-1.84-11.18C267,316.85,265,317.15,263.36,318.05Zm15.85,2.82a3.05,3.05,0,0,0-6.11.12,3.05,3.05,0,1,0,6.11-.12Z" transform="translate(-79.14 -89.46)"/><path d="M239.4,441.39c-5.87.4-10.49-4.59-15.93-4.12-6.82.58-13.94-1.32-20.53,2.72-3.4,2.08-7.74,1.65-11.66.25-2.8-1-6.71-1.51-5.25-5.87,1.4-4.15,4.41-1.5,6.89-1a17.6,17.6,0,0,0,10.75-1.13,37,37,0,0,1,28.41,0c3.92,1.56,7.73,2.1,11.62.74,2.51-.88,5.07-1.85,6.24,1.19,1.38,3.61-1.63,4.73-4.35,5.56C243.57,440.45,241.47,440.87,239.4,441.39Z" transform="translate(-79.14 -89.46)"/><path d="M220,451.84c-2.27.21-5.61.42-8.93.85-2.53.32-5.27.83-5.8-2.52s2.61-3.77,4.81-4.41a29.6,29.6,0,0,1,16.28,0c2.35.64,5.18,1.42,4.43,4.7s-3.74,2.26-6.06,2.11C223.48,452.47,222.27,452.2,220,451.84Z" transform="translate(-79.14 -89.46)"/><path d="M285,287.15a58.32,58.32,0,0,1,18.46,4.74c8.5,3.73,14.76,13.44,13.64,17.28s-9.68-7-15.51-8.61c-16-4.3-31.53-1.67-47,3.29-3.82,1.23-8.47,2.88-9.7-3.32-1.19-6,3.52-6.85,7.44-8C263.08,289.52,273.8,286.55,285,287.15Z" transform="translate(-79.14 -89.46)"/><path d="M152.4,287.15a58.32,58.32,0,0,0-18.46,4.74c-8.5,3.73-14.76,13.44-13.64,17.28s9.68-7,15.51-8.61c16-4.3,31.53-1.67,47,3.29,3.82,1.23,8.47,2.88,9.7-3.32,1.19-6-3.52-6.85-7.44-8C174.33,289.52,163.61,286.55,152.4,287.15Z" transform="translate(-79.14 -89.46)"/><path d="M331.28,294.08H316.64c-8.55-14.77-22.93-20.74-39.19-20.74s-30.63,6-39.18,20.74H199.16c-8.55-14.77-22.92-20.74-39.18-20.74s-30.65,6-39.19,20.74h-18c-4.57,0-8.29,2.82-8.29,7.39s3.72,7.39,8.29,7.39h10.8a51.46,51.46,0,0,0-1.12,10.22,47.45,47.45,0,1,0,94.91,0,51.11,51.11,0,0,0-1.11-10.2h24.8A51.44,51.44,0,0,0,230,319.08a47.45,47.45,0,1,0,94.9,0,51.24,51.24,0,0,0-1.11-10.2h7.5c4.57,0,8.29-2.81,8.29-7.39S335.86,294.08,331.28,294.08Z" transform="translate(-79.14 -89.46)"/><path d="M93.44,386.8C90,396,87.65,409.17,98.15,414.72c7,3.71,17.35,1.5,19.22-7.07,1.64-7.52-9-10.4-11.48-3.17l-8.54,24.66c-1.48,4.27,3.16,8.62,7.32,7.32a31.87,31.87,0,0,0,17.84-13.65l-8.15,2.14c5.84,2.65,2.23,16.15,1.77,20.86L113.06,477c-.49,5,5.3,6.75,9,5.14a69.66,69.66,0,0,0,18.23-11.85l-10.16-4.21a243.53,243.53,0,0,1-6.88,69.36,6,6,0,0,0,5.74,7.54A32,32,0,0,0,158,527.17l-10.88-1.42c3.92,15.23,11.85,33.34,28.59,37.8,13.17,3.51,30.3-2.79,32.95-17.43a6,6,0,0,0-11.48-3.17c-2.85,7.78-5.49,16.68-1.89,24.67,2.74,6.08,9,10.94,15.87,10.86,8.82-.1,13.43-8.78,18-15L247,539.58l-10.88-1.42a62,62,0,0,1-8.41,47.39c-2.88,4.51,1.87,10,6.72,8.75,30.08-7.61,54.26-33.62,59.12-64.35l-9.95,2.63c10.79,8.39,18,20.49,19.33,34.22.43,4.59,6.52,8.54,10.16,4.21,16-19,21.11-45.64,12.17-69l-4.16,7.32c20.27-6.52,30.25-33,18.07-50.91l-5.14,9c11.69-1.34,15.83-12.78,13.33-23.28-2.89-12.14-16.48-17-19.88-28.48l-2.74,6.72a25.32,25.32,0,0,0,14.67-24.65c-.53-7.6-12.44-7.66-11.91,0,.46,6.58-2.79,11.71-8.77,14.37-2.33,1-3.42,4.41-2.74,6.72,2.75,9.29,10.05,14.87,16.23,21.82a14.09,14.09,0,0,1,3.95,9c.07,1.42,0,5.62-2.16,5.87-4.08.47-7.95,4.83-5.14,9,7.7,11.32,2.44,29.12-11,33.42-2.84.91-5.35,4.21-4.16,7.32,7.36,19.19,4.25,41.51-9.11,57.37l10.16,4.21C313.28,550,305.4,534.55,292,524.16c-3.08-2.4-9.17-2.33-9.95,2.63-4.25,26.86-24.36,49.34-50.81,56l6.72,8.75A74.14,74.14,0,0,0,247.61,535c-1.26-5.48-8.06-5.21-10.88-1.42-7.47,10-14.51,20.67-22.52,30.28-1.33,1.59-2.18,2.91-4.31,2.48-1.61-.32-3.1-2.12-3.76-3.54-2.36-5,.81-11.95,2.55-16.69l-11.48-3.17c-1.62,8.93-12.78,11.63-20.34,8.46-11-4.61-15.53-18.29-18.24-28.82-1.29-5-8.31-5.76-10.88-1.42a20.08,20.08,0,0,1-18.8,9.91l5.74,7.54a255.35,255.35,0,0,0,7.3-72.52,6,6,0,0,0-10.16-4.21,59.84,59.84,0,0,1-15.82,10l9,5.14c1.28-13,2.59-26,3.84-39,.81-8.42.52-19.29-8.43-23.34-3-1.37-6.27-.81-8.15,2.14A19.17,19.17,0,0,1,101.5,425l7.32,7.32,8.54-24.66-11.48-3.17s.74.37-.47.11c-.89-.19-1.75-.16-2.42-.92-2.79-3.12.75-10.59,1.92-13.72,2.69-7.19-8.82-10.29-11.48-3.17Z" transform="translate(-79.14 -89.46)"/></svg>