<svg width="1000" height="1000" xmlns="http://www.w3.org/2000/svg"><g fill="none" fill-rule="evenodd"><path d="M279 624.375v-43.956h86.792l28.266-162.837H308v-44.955h93.75l23-140.859h53.173l-24 140.859H588.75l23-140.859h53.132l-23 140.859H722v44.955h-87.792l-28.266 162.837H693v43.956h-93.764l-24 143.856h-52.138l24-143.856H412.236l-24 143.856h-52.098l23-143.856H279zm302.126-206.793h-135.87l-26.382 162.837h135.87l26.382-162.837z" fill="#FFF" fill-rule="nonzero"/><g transform="matrix(1 0 0 -1 0 1000)"><path d="M500.345 0C678.8 0 843.69 95.295 932.919 250c89.229 154.705 89.229 345.295 0 500-89.228 154.705-254.118 250-432.574 250-178.457 0-343.347-95.295-432.575-250-89.228-154.705-89.228-345.295 0-500C156.998 95.295 321.888 0 500.345 0v47.97c-161.333 0-310.41 86.163-391.085 226.015-80.676 139.853-80.676 312.177 0 452.03C189.936 865.867 339.012 952.03 500.345 952.03c161.333 0 310.409-86.163 391.085-226.015 80.675-139.853 80.675-312.177 0-452.03C810.754 134.133 661.678 47.97 500.345 47.97V0z" fill-opacity=".002" fill="#455A64"/><path d="M500.345 0C652.35 0 796.1 69.28 890.877 188.247l-37.472 29.908C767.715 110.609 637.772 47.97 500.345 47.97V0z" fill="#CE001B"/><path d="M890.877 188.247c94.776 118.967 130.275 274.668 96.453 423.008l-46.724-10.665c30.578-134.114-1.512-274.889-87.201-382.435l37.472-29.908z" fill="#780011"/><path d="M987.33 611.255c-33.822 148.34-133.317 273.21-270.265 339.225l-20.79-43.21c123.824-59.687 213.752-172.565 244.33-306.68l46.725 10.665z" fill="#6D7096"/><path d="M717.065 950.48c-136.948 66.014-296.493 66.014-433.44 0l20.79-43.21c123.825 59.686 268.035 59.686 391.86 0l20.79 43.21z" fill="#60BBD5"/><path d="M283.624 950.48C146.676 884.465 47.182 759.594 13.36 611.255l46.725-10.665C90.662 734.705 180.59 847.583 304.415 907.27l-20.79 43.21z" fill="#0F99BE"/><path d="M13.36 611.255c-33.823-148.34 1.677-304.041 96.453-423.008l37.471 29.908C61.595 325.701 29.506 466.476 60.084 600.59l-46.725 10.665z" fill="#8C9D26"/><path d="M109.813 188.247C204.589 69.28 348.338 0 500.345 0v47.97c-137.427 0-267.371 62.639-353.06 170.185l-37.472-29.908z" fill="#FCD813"/></g></g></svg>