<svg id="Capa_1" data-name="Capa 1" xmlns="http://www.w3.org/2000/svg" viewBox="0 0 296.7 421.25"><defs><style>.cls-1{fill:none;stroke:#000;stroke-miterlimit:10;stroke-width:6px;}</style></defs><title>Normal</title><path d="M340.1,205.66c-17.4-30.2-35.4-49-68.8-55.7-1.7-.3-3.4-.7-5.1-1.1,11.6-4.1,23.3-6.7,35.7-4.3-3.8-1.6-7.5-3.2-11.3-4.7a140,140,0,0,0-35.3-9.1c-17.2-2.1-34-.7-50.1,6.5-1.2.5-2.4,1.1-3.6,1.7s-2.3,1.2-3.4,1.8c-3.2-4.2-.4-6,7.4-10.1-2,.1-4.1.2-6.1.4-14.1,1.1-27.7,3.9-40.6,10.2-8.5,4.2-16,9.9-21.3,18.2-3.6,5.8-3.7,5.8-4.2,12.7-.1,1.2-.6,1.3-1.5,1.7-51.5,20.5-52.7,87.8-52.7,87.8.1,2.6.2,4.9.3,7.1,1.2,20.9,3.7,41.6,8.6,61.7,7.4,6.2,12.6,18.7,12.7,18.8-1-7.7-1.3-14.4-.6-18.7,0,0,.5-50.3,3.2-64.3,4.2-21.5,10-50,70-52.7h93.1c60,2.7,65.8,31.2,70,52.7,2.7,14,3.2,64.3,3.2,64.3.7,4,.4,10.1-.4,17a5.7,5.7,0,0,0,.1,1.3c1.2-2.8,4.2-17.5,13.8-19.4C357.7,311.56,354,229.76,340.1,205.66Z" transform="translate(-72.15 -129.87)"/><path class="cls-1" d="M241.8,213.66h24.7c60,2.7,65.8,31.2,70,52.7,2.7,14,3.2,64.3,3.2,64.3,2.3,13.3-5.8,49.1-9.9,65.1-4.4,17-14,50.7-18.7,67.7-3.4,12.3-29.3,59-54,75s-37.2,7.3-37.2,7.3h-.1s-12.4,8.7-37-7.3-50.6-62.7-54-75c-4.6-16.9-14.3-50.7-18.7-67.7-4.1-15.9-12.2-51.8-9.9-65.1,0,0,.5-50.3,3.2-64.3,4.2-21.5,10-50,70-52.7h68.4Z" transform="translate(-72.15 -129.87)"/><path d="M238.8,438.26a4.56,4.56,0,0,1,.4-.8c.3-.5.6-1.3,1.1-2.2a16.29,16.29,0,0,0,1.1-3.1v-.6c0-.1-.2-.1-.2.3a1.42,1.42,0,0,0,.2.6c0,.1.1.1.1.2h0s.5.3.2.2h-.1l-.2-.1h0l.1.1a.35.35,0,0,1,.2.1c.1.1.1.1.2.1s.1.1,0,.1a12.44,12.44,0,0,1-1.3,1c-.6.5-1.2,1-1.9,1.6s-1.4,1.2-2.1,1.9l-1,1-.5.5-.1.1h0l-.1.1h0l-.1.1-.4.3c-.9.8-1.8,1.6-2.8,2.4a34.58,34.58,0,0,1-3.1,2.2,25.57,25.57,0,0,1-3.7,2c-.7.3-1.5.6-2.3.9l-1.4.3c-.3,0-.6.1-.9.1h-1.3l-.9-.1a11.62,11.62,0,0,1-1.8-.4c-.9-.3-1.6-.6-2.3-.9a25.57,25.57,0,0,1-3.7-2c-1.1-.7-2.1-1.5-3.1-2.2a32.16,32.16,0,0,1-2.8-2.4l-.3-.3-.1-.1-.1-.1h0l-.1-.1-.5-.5a9.42,9.42,0,0,1-1-1c-.7-.7-1.4-1.3-2.1-1.9s-1.3-1.1-1.9-1.6-1.1-.8-1.3-1,0-.1.3-.3l.1-.1v-.1h0c-.2.1.3-.2.2-.2h0l-.1.1h-.1c.1-.1.3-.3.3-.4a.37.37,0,0,1,.1-.3c0-.4-.1-.4-.2-.3a.63.63,0,0,0,0,.6,16.29,16.29,0,0,0,1.1,3.1c.5.9.8,1.7,1.1,2.2a4.56,4.56,0,0,1,.4.8l-.4.4s-.9-.8-2.3-2.3a17.77,17.77,0,0,1-2.3-3.1,3.45,3.45,0,0,1-.4-2.5,2.51,2.51,0,0,1,.4-.7c.1-.1.2-.1.2-.2.2-.1.2-.2.4-.2a2.62,2.62,0,0,1,1.5-.2,9.18,9.18,0,0,1,2.8.9,17.36,17.36,0,0,1,2.6,1.5,56.06,56.06,0,0,1,5.1,3.8,53.59,53.59,0,0,0,5.5,3.8c1,.6,2,1.1,3,1.6.5.2,1.1.4,1.6.6l.8.2.9.1a1.7,1.7,0,0,0,.7-.1l.8-.2a10.41,10.41,0,0,0,1.6-.6,17.28,17.28,0,0,0,3-1.6,59,59,0,0,0,5.5-3.8,56.07,56.07,0,0,1,5.1-3.8,17.37,17.37,0,0,1,2.6-1.5,9.18,9.18,0,0,1,2.8-.9,3.89,3.89,0,0,1,1.5.2,1.82,1.82,0,0,1,1,1.1,3.45,3.45,0,0,1-.4,2.5,16.63,16.63,0,0,1-2.3,3.1c-1.4,1.5-2.3,2.3-2.3,2.3Z" transform="translate(-72.15 -129.87)"/><path class="cls-1" d="M101.8,349.36s-10.3-24.7-22.3-21.9c-4.1,1-9,5.8,4.5,28.2,4.6,7.6,12,25.3,13.5,33,.6,3.2,2.8,16,5.8,16.5,2.7.5,7.7,1.4,8.7-6.4" transform="translate(-72.15 -129.87)"/><circle cx="35.25" cy="277.59" r="7.2"/><circle cx="260.75" cy="277.59" r="7.2"/><path class="cls-1" d="M339.2,349.36s10.3-24.7,22.3-21.9c4.1,1,9,5.8-4.5,28.2-4.6,7.6-12,25.3-13.5,33-.6,3.2-2.8,16-5.8,16.5-2.7.5-7.7,1.4-8.7-6.4" transform="translate(-72.15 -129.87)"/><path d="M218.2,546.56a2.41,2.41,0,0,0,.3-.8,9.44,9.44,0,0,0,.3-.9,10.38,10.38,0,0,0,.3-1.2,5.85,5.85,0,0,0,.2-1.3c.1-.5.1-1,.2-1.5s.1-1.1.1-1.6v-1.6a9.7,9.7,0,0,0-.1-1.7v-.8c0-.3-.1-.6-.1-.8-.1-.5,0-1.1-.1-1.6s-.1-1-.1-1.4c0-.9-.1-1.7-.1-2.2v-.9a4,4,0,0,1,.5.7,5.54,5.54,0,0,1,.6.8,10.54,10.54,0,0,1,.7,1.1c.2.4.4.9.6,1.4a9.83,9.83,0,0,1,.5,1.6,11.63,11.63,0,0,1,.4,1.8,12.25,12.25,0,0,1,.2,1.9v1c0,.3-.1.7-.1,1a6.46,6.46,0,0,1-.4,1.9c-.2.6-.4,1.2-.6,1.7a6.38,6.38,0,0,1-.8,1.4,4.5,4.5,0,0,1-.9,1c-.3.3-.6.5-.8.7C218.5,546.46,218.2,546.56,218.2,546.56Z" transform="translate(-72.15 -129.87)"/><path d="M218.4,338.86a1.24,1.24,0,0,1,.2.3,4.35,4.35,0,0,1,.4.7,16.12,16.12,0,0,1,1,2.5,23.53,23.53,0,0,1,1.1,7.4,24.66,24.66,0,0,1-.3,3.9,28.4,28.4,0,0,1-.8,3.4,16.12,16.12,0,0,1-1,2.5,4.34,4.34,0,0,1-.4.7,1.24,1.24,0,0,1-.2.3l-.2-.2c-.1-.2-.3-.4-.5-.7a8.78,8.78,0,0,1-.6-1c-.2-.4-.4-.9-.6-1.4a16.09,16.09,0,0,1-1-3.5,17.54,17.54,0,0,1-.3-4,25.81,25.81,0,0,1,.4-4,15.16,15.16,0,0,1,1-3.4,26.52,26.52,0,0,1,1.2-2.4c.2-.3.4-.5.5-.7A.58.58,0,0,1,218.4,338.86Z" transform="translate(-72.15 -129.87)"/><path d="M167.9,356.56c2,5.2,1.3,8.6-1.8,11.2a8.19,8.19,0,0,1-9.1.7c-3.7-2.2-4.6-5.3-3.3-11.4-4.4,1.6-8.6,3.1-12.7,4.7a35.4,35.4,0,0,0-3.4,1.6,2.46,2.46,0,0,1-3.5-1.1c-.6-1.4-.2-2.5,1.4-3.4a62.08,62.08,0,0,1,25.1-7.6,37.66,37.66,0,0,1,25.3,8.1c.3.2.5.5.8.7a2.45,2.45,0,0,1,.1,3.6,2.62,2.62,0,0,1-3.6.1c-2.4-1.6-6.8-4-9.3-5.3A42.38,42.38,0,0,0,167.9,356.56Zm-7,7.9a3.26,3.26,0,0,0,3.1-3.1,3.05,3.05,0,0,0-6.1-.2A3.28,3.28,0,0,0,160.9,364.46Z" transform="translate(-72.15 -129.87)"/><path d="M263.4,358.46c-2.5,1.4-7,3.7-9.3,5.3a2.62,2.62,0,0,1-3.6-.1,2.45,2.45,0,0,1,.1-3.6,2.7,2.7,0,0,1,.8-.7,37.31,37.31,0,0,1,25.3-8.1,61.15,61.15,0,0,1,25.1,7.6c1.6.8,2,2,1.4,3.4a2.46,2.46,0,0,1-3.5,1.1c-1.2-.5-2.3-1.2-3.4-1.6-4.1-1.6-8.3-3-12.7-4.7,1.3,6.2.3,9.2-3.3,11.4a8.38,8.38,0,0,1-9.1-.7c-3.2-2.6-3.8-6-1.8-11.2C267.1,357.26,265.1,357.56,263.4,358.46Zm15.8,2.8a3.09,3.09,0,0,0-3.2-2.9,3.15,3.15,0,0,0-2.9,3.1,3.06,3.06,0,1,0,6.1-.2Z" transform="translate(-72.15 -129.87)"/><path d="M239.4,481.76c-5.9.4-10.5-4.6-15.9-4.1-6.8.6-13.9-1.3-20.5,2.7-3.4,2.1-7.7,1.7-11.7.2-2.8-1-6.7-1.5-5.2-5.9,1.4-4.2,4.4-1.5,6.9-1a18.28,18.28,0,0,0,10.8-1.1,37.25,37.25,0,0,1,28.4,0c3.9,1.6,7.7,2.1,11.6.7,2.5-.9,5.1-1.9,6.2,1.2,1.4,3.6-1.6,4.7-4.3,5.6A49.05,49.05,0,0,1,239.4,481.76Z" transform="translate(-72.15 -129.87)"/><path d="M220,492.26c-2.3.2-5.6.4-8.9.8-2.5.3-5.3.8-5.8-2.5s2.6-3.8,4.8-4.4a29.15,29.15,0,0,1,16.3,0c2.3.6,5.2,1.4,4.4,4.7s-3.7,2.3-6.1,2.1C223.5,492.86,222.3,492.56,220,492.26Z" transform="translate(-72.15 -129.87)"/><path d="M285,327.56a61.11,61.11,0,0,1,18.5,4.7c8.5,3.7,14.8,13.4,13.6,17.3s-9.7-7-15.5-8.6c-16-4.3-31.5-1.7-47,3.3-3.8,1.2-8.5,2.9-9.7-3.3-1.2-6,3.5-6.9,7.4-8C263.1,330,273.8,327,285,327.56Z" transform="translate(-72.15 -129.87)"/><path d="M152.4,327.56a61.11,61.11,0,0,0-18.5,4.7c-8.5,3.7-14.8,13.4-13.6,17.3s9.7-7,15.5-8.6c16-4.3,31.5-1.7,47,3.3,3.8,1.2,8.5,2.9,9.7-3.3,1.2-6-3.5-6.9-7.4-8C174.4,330,163.6,327,152.4,327.56Z" transform="translate(-72.15 -129.87)"/></svg>